<?xml version="1.0" encoding="utf-8"?>
<!-- Generator: Adobe Illustrator 25.2.3, SVG Export Plug-In . SVG Version: 6.00 Build 0)  -->
<svg version="1.1" id="Calque_1" xmlns="http://www.w3.org/2000/svg" xmlns:xlink="http://www.w3.org/1999/xlink" x="0px" y="0px"
	 viewBox="0 0 100 100" style="enable-background:new 0 0 100 100;" xml:space="preserve">
<style type="text/css">
	.st0{stroke:#000000;stroke-width:3;stroke-miterlimit:10;}
</style>
<path class="st0" d="M19.07,50.96l52.6-30.08c1.46-0.84,3.25,0.39,2.99,2.06L66.9,72.19c-0.16,1.04-1.23,1.67-2.22,1.3l-15.42-6.22
	l-8.92,9.61c-1.32,1.2-3.44,0.39-3.64-1.38l-0.1-9.6c0-0.33,0.12-0.65,0.34-0.89l19.49-21.39c1.12-1.23,1.04-3.12-0.17-4.26
	l-0.47-0.44c-1.14-1.07-2.92-1.1-4.09-0.05L28.61,59.38c-0.02,0-0.04,0-0.06,0.01l-9.7-5.02C17.68,53.49,17.79,51.69,19.07,50.96z"
	/>
</svg>
