<?xml version="1.0" encoding="utf-8"?>
<!-- Generator: Adobe Illustrator 25.2.3, SVG Export Plug-In . SVG Version: 6.00 Build 0)  -->
<svg version="1.1" id="Calque_1" xmlns="http://www.w3.org/2000/svg" xmlns:xlink="http://www.w3.org/1999/xlink" x="0px" y="0px"
	 viewBox="0 0 100 100" style="enable-background:new 0 0 100 100;" xml:space="preserve">
<path d="M72.93,78.26c-4.74-3.75-9.48-7.51-14.22-11.26c-0.53,0.19-4.82,2.8-7.61-1.55c0,0-10.57-18.56-11.12-22.31
	c-0.23-1.58,0.58-3.02,1.18-3.83c0.31-0.42,0.69-0.77,1.12-1.05c0.34-0.22,0.74-0.47,0.9-0.53l-0.52-18.19c0,0-1.9,0.06-5.04,0.79
	c-1.24,0.37-3.28,1.18-5.05,3.02c0,0-3.07,2.53-3.09,5.81c-0.11,21.76,5.25,30.25,5.26,30.26c0,0,0,0,0,0
	C35.96,61.86,46,81.94,60.8,82.32C63.14,82.38,67.51,82,72.93,78.26z"/>
<path d="M44.75,19.54l0.2,17.58c0,0,3.79-0.86,4.45-2.68l-0.07-12.17C48.16,19.27,44.75,19.54,44.75,19.54z"/>
<path d="M60.26,65.56L74.2,76.67c0,0,2.3-3.13,1.22-5.08l-9.84-8C62.99,63.16,60.26,65.56,60.26,65.56z"/>
</svg>
