<?xml version="1.0" encoding="utf-8"?>
<!-- Generator: Adobe Illustrator 25.2.3, SVG Export Plug-In . SVG Version: 6.00 Build 0)  -->
<svg version="1.1" id="Calque_1" xmlns="http://www.w3.org/2000/svg" xmlns:xlink="http://www.w3.org/1999/xlink" x="0px" y="0px"
	 viewBox="0 0 100 100" style="enable-background:new 0 0 100 100;" xml:space="preserve">
<path d="M49.73,33.01"/>
<path d="M55.97,62.07H43.86v17.72H25.77c-1.78,0-3.22-1.44-3.22-3.22V54.31l25.43-20.58c1.18-0.96,2.87-0.96,4.06,0l25.43,20.58
	v22.26c0,1.78-1.44,3.22-3.22,3.22H55.97"/>
<path d="M12.93,49.61L47.52,21.1c1.44-1.19,3.52-1.19,4.96,0L64.7,31.16l-0.02-8.63c0-1.04,0.84-1.89,1.88-1.89h9.05
	c1.04,0,1.88,0.84,1.88,1.88l-0.03,19.15l9.61,7.93c0.77,0.64,0.89,1.77,0.27,2.56l-2.24,2.84c-0.63,0.8-1.8,0.94-2.6,0.3
	L52.44,31.15c-1.43-1.15-3.46-1.15-4.89,0L17.49,55.3c-0.8,0.64-1.97,0.51-2.6-0.3l-2.24-2.84C12.04,51.38,12.16,50.25,12.93,49.61z
	"/>
</svg>
