<?xml version="1.0" encoding="utf-8"?>
<!-- Generator: Adobe Illustrator 25.2.3, SVG Export Plug-In . SVG Version: 6.00 Build 0)  -->
<svg version="1.1" id="Calque_1" xmlns="http://www.w3.org/2000/svg" xmlns:xlink="http://www.w3.org/1999/xlink" x="0px" y="0px"
	 viewBox="0 0 146.15 79.81" style="enable-background:new 0 0 146.15 79.81;" xml:space="preserve">
<style type="text/css">
	.st0{fill:#FFFFFF;stroke:#000000;stroke-width:3;stroke-miterlimit:10;}
	.st1{font-family:'Impact';}
	.st2{font-size:24px;}
	.st3{fill:#FFFFFF;stroke:#000000;stroke-width:2;stroke-miterlimit:10;}
	.st4{font-size:12px;}
</style>
<rect x="99.57" y="24.36" class="st0" width="26.9" height="16.21"/>
<rect x="97.65" y="19.84" class="st0" width="32.83" height="4.51"/>
<text transform="matrix(1 0 0 1 15.6688 48.0993)" class="st1 st2">CHAUDA</text>
<path class="st0" d="M103.7,23.65c-1.5,7.02,3.34,9.64,1.94,15.13c-1.43,5.59-3.86,7.36-1.16,8.99c3.21,1.94,6.65-4.94,6.92-11.02
	c0.36-8.1-3.93-8.02-1.53-15.29c1.34-4.08,5.69-7.68,2.79-9.54C109.59,9.94,105.15,16.85,103.7,23.65z"/>
<rect x="95.55" y="18.55" class="st3" width="2.1" height="7.1"/>
<text transform="matrix(1 0 0 1 37.1792 62.064)" class="st1 st4">Je n’ai plus froid</text>
<path class="st0" d="M114.94,23.65c-1.5,7.02,3.34,9.64,1.94,15.13c-1.43,5.59-3.86,7.36-1.16,8.99c3.21,1.94,6.65-4.94,6.92-11.02
	c0.36-8.1-3.93-8.02-1.53-15.29c1.34-4.08,5.69-7.68,2.79-9.54C120.84,9.94,116.4,16.85,114.94,23.65z"/>
</svg>
