<?xml version="1.0" encoding="utf-8"?>
<!-- Generator: Adobe Illustrator 25.2.3, SVG Export Plug-In . SVG Version: 6.00 Build 0)  -->
<svg version="1.1" id="Calque_1" xmlns="http://www.w3.org/2000/svg" xmlns:xlink="http://www.w3.org/1999/xlink" x="0px" y="0px"
	 viewBox="0 0 100 100" style="enable-background:new 0 0 100 100;" xml:space="preserve">
<style type="text/css">
	.st0{stroke:#000000;stroke-width:3;stroke-miterlimit:10;}
	.st1{fill:#FFFFFF;}
	.st2{fill:#999999;}
	.st3{fill:none;stroke:#000000;stroke-width:3;stroke-linecap:round;stroke-miterlimit:10;}
	.st4{fill:none;stroke:#000000;stroke-width:3;stroke-miterlimit:10;}
</style>
<path class="st0" d="M14.24,63.53c0.38,0.16,1.1,0.04,1.84,0.07c1.03,0.04,1.84,0.9,1.85,1.93l0.11,11.44c0,0.49,0.41,0.89,0.9,0.89
	h12.28c0.49,0,0.9-0.4,0.9-0.89l0.12-24.85c0-0.51,0.42-0.93,0.94-0.9c1.96,0.11,5.47,1.95,7.88,3.29c2.52,1.4,4.55,1.21,5.72-1.43
	c0.99-2.23-0.93-3.55-1.36-3.89c-1.78-1.36-6.95-3.77-10.82-5.7c-1.89-0.94-3.95-1.5-6.06-1.62c-1.36-0.08-2.72-0.15-3.12-0.1
	c-1.71,0.2-6.64,0.59-9.99,4.34C13.66,48.08,12.95,63.01,14.24,63.53z"/>
<path class="st1" d="M13.16,29.97"/>
<circle class="st0" cx="25.26" cy="32.92" r="8.84"/>
<g>
	<path class="st2" d="M50.11,27.64c7.82-0.02,15.64-0.04,23.47-0.07"/>
	<path class="st3" d="M50.11,27.64c7.82-0.02,15.64-0.04,23.47-0.07"/>
</g>
<g>
	<path class="st2" d="M61.27,35.64c3.93-0.02,7.87-0.04,11.8-0.07"/>
	<path class="st3" d="M61.27,35.64c3.93-0.02,7.87-0.04,11.8-0.07"/>
</g>
<g>
	<path class="st2" d="M61.27,43.63c3.93-0.02,7.87-0.04,11.8-0.07"/>
	<path class="st3" d="M61.27,43.63c3.93-0.02,7.87-0.04,11.8-0.07"/>
</g>
<g>
	<path class="st2" d="M47.53,49.36c1.71-3.54,3.43-7.08,5.14-10.62"/>
	<path class="st3" d="M47.53,49.36c1.71-3.54,3.43-7.08,5.14-10.62"/>
</g>
<path class="st4" d="M41.3,46.92V22.49c0-1.89,1.53-3.42,3.42-3.42h33.51c1.89,0,3.42,1.53,3.42,3.42v26.69
	c0,1.89-1.53,3.42-3.42,3.42H47.69"/>
<g>
	<path class="st2" d="M50.57,77.29c2.76-7.93,5.52-15.86,8.28-23.79"/>
	<path class="st3" d="M50.57,77.29c2.76-7.93,5.52-15.86,8.28-23.79"/>
</g>
<g>
	<path class="st2" d="M72.77,77.26c-2.82-7.91-5.64-15.82-8.46-23.73"/>
	<path class="st3" d="M72.77,77.26c-2.82-7.91-5.64-15.82-8.46-23.73"/>
</g>
</svg>
