<?xml version="1.0" encoding="utf-8"?>
<!-- Generator: Adobe Illustrator 25.2.3, SVG Export Plug-In . SVG Version: 6.00 Build 0)  -->
<svg version="1.1" id="Calque_1" xmlns="http://www.w3.org/2000/svg" xmlns:xlink="http://www.w3.org/1999/xlink" x="0px" y="0px"
	 viewBox="0 0 100 100" style="enable-background:new 0 0 100 100;" xml:space="preserve">
<style type="text/css">
	.st0{fill:none;stroke:#000000;stroke-width:3;stroke-miterlimit:10;}
	.st1{fill:none;stroke:#000000;stroke-width:3;stroke-linecap:round;stroke-miterlimit:10;}
</style>
<path class="st0" d="M30.93,83.03L15.41,67.09c-0.78-0.8-0.77-2.09,0.04-2.87l6.41-6.24c0.8-0.78,2.09-0.77,2.87,0.04l15.53,15.93
	c0.78,0.8,0.77,2.09-0.04,2.87l-6.41,6.24C33,83.84,31.72,83.83,30.93,83.03z"/>
<path class="st1" d="M40.2,58.03l21.51-0.06c0.89,0,1.75-0.32,2.43-0.89l12-10.02c1.19-1.01,2.93-1.01,4.13-0.02l0,0
	c1.47,1.22,1.56,3.44,0.19,4.77c-3.8,3.71-12.51,11.78-16.27,15.4c-1.58,1.52-3.68,2.36-5.87,2.37l-12.94,0.01
	c-0.77,0.02-1.51,0.27-2.14,0.71L39.7,72.8"/>
<path class="st0" d="M26.82,59.45l8.47-7.12c0.85-0.71,1.91-1.11,3.02-1.13l14.93-0.21c0.88-0.01,2.23,0.38,2.73,1.11
	c0.7,1.01,0.73,2.43,0.56,3.47c-0.24,1.56-1.93,2.42-3.51,2.43l-6.34,0.02"/>
<path class="st0" d="M41.92,35.54v4.57c0,0.05,0.04,0.09,0.09,0.09h23.13c0.05,0,0.09-0.04,0.09-0.09v-4.6
	c0-0.95-0.34-1.88-0.98-2.58c-1.73-1.91-4.51-3.02-10.47-3.02c-5.92,0-9.49,1.27-11.08,3.29C42.18,33.87,41.92,34.7,41.92,35.54z"/>
<circle class="st0" cx="53.58" cy="23.12" r="5.92"/>
</svg>
